# xmcd CD database file
#
# Track frame offsets:
#	151
#	41800
#	66618
#	102681
#	130358
#	170599
#	189318
#	210906
#	224904
#	237718
#
# Disc length: 3374 seconds
#
# Revision: 0
# Processed by: cddbd v1.5.2PL0 Copyright (c) Steve Scherf et al.
# Submitted via: CDex 1.51
#
DISCID=a90d2c0a
DTITLE=Ben Webster and Harry "Sweets" Edison - The Quintet Studio Sessions
DYEAR=1958
DGENRE=Jazz
TTITLE0=Better Go
TTITLE1=How Long Has This Been Going On?
TTITLE2=Kitty
TTITLE3=My Romance
TTITLE4=Did You Call Her Today?
TTITLE5=Embraceable You
TTITLE6=Summertime
TTITLE7=Bess, You Is My Woman
TTITLE8=I Got Plenty of Nothing
TTITLE9=My Man's Gone Now
EXTD=YEAR: 1958
EXTT0=
EXTT1=
EXTT2=
EXTT3=
EXTT4=
EXTT5=
EXTT6=
EXTT7=
EXTT8=
EXTT9=
PLAYORDER=
